<?xml version="1.0" standalone="no"?>
<!DOCTYPE svg PUBLIC "-//W3C//DTD SVG 20010904//EN"
 "http://www.w3.org/TR/2001/REC-SVG-20010904/DTD/svg10.dtd">
<svg version="1.0" xmlns="http://www.w3.org/2000/svg"
 width="400.000000pt" height="400.000000pt" viewBox="0 0 400.000000 400.000000"
 preserveAspectRatio="xMidYMid meet">

<g transform="translate(0.000000,400.000000) scale(0.100000,-0.100000)"
fill="#000000" stroke="none">
<path d="M642 3818 c-6 -6 -12 -20 -12 -30 0 -10 -7 -21 -15 -25 -24 -9 -31 5
-10 21 11 8 15 18 10 26 -14 22 -35 -19 -35 -66 0 -55 8 -74 27 -67 13 5 15 2
9 -18 -11 -37 -26 -204 -28 -306 -1 -54 -6 -89 -12 -86 -15 10 4 -50 21 -62 9
-7 13 -21 10 -36 -4 -23 -4 -23 -6 4 0 15 -5 27 -11 27 -5 0 -9 -40 -8 -94 0
-51 -2 -98 -6 -104 -4 -6 -7 -62 -7 -124 0 -81 -3 -108 -10 -98 -8 12 -9 9 -5
-11 3 -15 -1 -34 -9 -47 -14 -19 -14 -22 2 -31 16 -8 16 -12 3 -37 -12 -21
-12 -28 -2 -31 15 -6 16 -24 1 -20 -11 2 -21 -111 -19 -211 0 -13 -4 -31 -9
-40 -8 -15 -11 -14 -20 8 -8 21 -10 22 -10 5 -1 -11 6 -33 14 -49 8 -15 15
-35 15 -42 0 -16 -16 -19 -25 -4 -13 21 -24 9 -15 -16 9 -22 8 -25 -5 -21 -8
4 -19 -1 -24 -11 -9 -15 -10 -15 -11 3 -1 18 -2 18 -10 3 -6 -9 -24 -19 -40
-23 -29 -6 -30 -8 -32 -68 -1 -62 -1 -62 -8 -17 l-7 45 -2 -40 c-1 -22 -6 -49
-11 -60 -7 -14 -8 -7 -5 25 3 32 2 36 -3 16 -4 -16 -12 -31 -19 -33 -7 -3 -10
3 -6 15 5 21 -20 52 -43 52 -9 0 -14 -11 -14 -30 0 -17 5 -30 13 -30 8 0 7 -4
-3 -10 -8 -5 -22 -9 -30 -9 -10 0 -8 3 5 9 13 5 -5 8 -55 8 -41 0 -96 3 -122
7 l-48 7 0 -946 0 -946 21 0 c17 0 19 -3 10 -14 -6 -7 -9 -21 -5 -29 3 -9 2
-22 -3 -29 -5 -9 -10 -2 -14 22 -4 22 -7 2 -8 -57 l-1 -93 1800 0 c1709 0
1799 1 1794 17 -5 17 -5 17 6 1 10 -16 31 -18 205 -18 l195 0 0 129 c0 123 -1
129 -21 134 l-21 6 21 34 c21 34 21 36 21 891 0 513 -4 856 -9 856 -5 0 -19
-16 -31 -34 -23 -38 -49 -51 -80 -41 -11 3 -20 2 -20 -3 0 -13 -93 8 -230 52
-42 13 -43 14 -15 16 17 1 62 2 100 2 39 0 62 2 53 4 -10 3 -15 11 -11 20 3 9
-1 14 -12 14 -9 0 -13 5 -10 10 4 7 -2 9 -18 4 -14 -3 -34 -1 -44 6 -16 10
-16 10 4 5 29 -8 41 14 18 32 -18 12 -18 13 -1 13 16 0 16 2 5 16 -9 11 -22
14 -41 10 -27 -5 -38 6 -18 19 6 4 8 21 4 41 -4 24 -1 42 12 62 24 36 26 69 8
97 -10 15 -12 25 -5 30 17 10 6 61 -21 102 -14 21 -29 49 -33 63 -10 34 -122
187 -150 206 -13 8 -78 21 -150 30 -145 17 -280 45 -357 74 -29 11 -59 20 -66
20 -8 0 -30 7 -50 16 -36 16 -59 25 -104 43 -82 31 -78 28 -80 78 0 27 0 56 0
66 1 11 -4 31 -12 45 -7 15 -23 45 -34 67 -11 22 -28 63 -37 90 -30 88 -35 75
-35 -78 0 -126 -2 -147 -15 -147 -9 0 -26 11 -38 24 -12 13 -35 31 -52 40 -16
9 -37 20 -45 25 -101 59 -229 93 -355 93 -95 1 -218 -18 -260 -40 -16 -9 -34
-15 -39 -14 -4 2 -14 -3 -22 -9 -12 -10 -14 21 -15 202 -1 118 -5 257 -9 309
-6 61 -7 -17 -4 -216 4 -335 6 -326 -49 -339 -15 -4 -27 -11 -27 -16 0 -5 -6
-9 -14 -9 -15 0 -146 -127 -201 -194 -21 -27 -40 -68 -54 -118 -25 -89 -27
-123 -11 -198 15 -75 40 -353 33 -379 -5 -21 -23 -30 -23 -12 0 9 -69 36 -74
29 -6 -7 -16 -108 -11 -108 3 0 11 12 17 28 8 20 12 23 15 10 3 -10 10 -15 19
-11 10 4 14 -2 14 -21 0 -14 -4 -26 -8 -26 -5 0 -7 -13 -4 -30 2 -17 0 -30 -6
-30 -7 0 -8 -10 -2 -29 4 -15 4 -35 -1 -42 -5 -8 -6 -22 -3 -32 3 -10 -1 -19
-10 -23 -9 -3 -16 -12 -16 -20 0 -8 -4 -14 -10 -14 -5 0 -10 -7 -10 -15 0 -8
7 -15 15 -15 8 0 15 -4 15 -10 0 -5 -7 -10 -15 -10 -18 0 -20 -16 -2 -24 10
-5 10 -7 0 -12 -7 -3 -13 -16 -13 -29 0 -12 -7 -25 -15 -29 -13 -5 -13 -10 3
-40 9 -18 20 -29 23 -24 4 5 6 -9 6 -31 0 -22 -4 -38 -8 -35 -18 11 -8 -38 12
-66 13 -17 20 -37 16 -49 -3 -13 0 -21 8 -21 16 0 27 -27 15 -35 -6 -4 -10
-15 -10 -25 0 -14 5 -18 18 -13 14 6 15 4 4 -9 -7 -9 -9 -19 -4 -22 5 -3 7
-18 4 -33 -5 -25 -3 -26 11 -15 13 11 16 10 22 -8 4 -11 3 -35 -1 -53 -4 -17
-7 -38 -5 -45 1 -7 -11 -17 -26 -22 -15 -6 -35 -23 -45 -39 -12 -22 -21 -28
-37 -24 -15 4 -21 1 -21 -10 0 -8 5 -17 11 -19 6 -2 -4 -26 -23 -54 -27 -42
-40 -53 -69 -58 -20 -3 -39 -13 -43 -21 -9 -23 -35 -18 -46 10 -5 13 -12 47
-16 74 -7 52 -33 76 -57 52 -8 -8 -5 -11 10 -11 29 0 38 -16 13 -23 -18 -5
-20 -14 -20 -80 l0 -76 -57 -26 c-31 -15 -63 -28 -71 -29 -7 -1 -18 -9 -23
-17 -10 -16 -13 399 -3 425 3 9 17 16 30 16 22 0 24 4 25 53 0 28 1 69 2 90 1
20 -2 37 -7 37 -5 0 -3 7 4 15 10 12 10 25 2 58 -11 40 -31 1017 -33 1557 0
232 -8 312 -23 244 -4 -18 -16 -40 -27 -50 -10 -9 -19 -25 -19 -34 0 -10 -7
-23 -14 -30 -8 -6 -20 -27 -26 -46 -6 -19 -15 -34 -19 -34 -17 0 -29 131 -18
195 7 39 6 39 -6 -5 l-13 -45 -7 34 c-4 18 -7 91 -7 161 0 144 1 146 74 156
25 4 47 11 48 15 4 26 1 32 -14 36 -10 1 -26 5 -35 7 -10 3 -22 5 -27 5 -5 1
-2 9 7 19 18 20 22 38 10 45 -23 13 -70 16 -81 5z m-5 -230 c-3 -8 -6 -5 -6 6
-1 11 2 17 5 13 3 -3 4 -12 1 -19z m-10 -95 c-2 -16 -4 -5 -4 22 0 28 2 40 4
28 2 -13 2 -35 0 -50z m16 -75 c3 -24 3 -45 -1 -48 -4 -3 -9 -16 -10 -30 -6
-41 -12 -36 -12 8 0 24 5 42 11 42 8 0 8 4 2 13 -12 15 -15 57 -4 57 5 0 11
-19 14 -42z m12 -129 c-3 -24 -1 -37 5 -34 6 4 10 -10 9 -32 -1 -37 -2 -37 -9
-8 l-7 30 -5 -35 c-3 -19 -5 2 -5 48 -1 45 3 80 7 77 5 -3 7 -23 5 -46z m1249
-114 c3 -8 14 -15 25 -15 11 0 23 -4 26 -10 10 -16 22 -12 28 10 7 27 33 25
41 -2 6 -22 7 -22 20 -5 16 21 26 22 26 2 0 -9 10 -15 26 -15 21 0 24 -4 20
-22 -3 -13 -3 -17 0 -10 5 10 9 10 21 1 9 -8 17 -9 21 -3 27 37 117 32 160 -9
13 -12 27 -21 30 -21 13 3 37 -10 45 -23 4 -7 14 -13 20 -13 7 0 44 -32 82
-70 70 -70 70 -71 69 -125 0 -67 -18 -92 -34 -49 -18 47 -30 10 -29 -86 2 -75
6 -104 26 -160 3 -8 6 -27 7 -43 1 -33 -7 -34 -94 -7 -70 22 -65 22 -230 -18
-77 -18 -90 -27 -90 -58 0 -12 -5 -26 -11 -29 -5 -4 -9 -17 -8 -28 1 -12 -3
-33 -8 -47 -6 -13 -7 -33 -4 -45 5 -17 6 -16 9 8 2 15 9 26 15 25 7 -1 22 3
35 10 21 12 22 12 16 -12 -7 -28 9 -36 23 -13 4 8 20 22 35 31 25 16 27 16 32
-1 3 -10 19 -26 34 -35 26 -16 30 -16 59 3 26 17 32 17 42 5 10 -12 8 -16 -11
-22 -13 -3 -32 -13 -42 -20 -20 -14 -14 -14 91 2 17 2 48 20 69 39 44 40 41
40 81 20 52 -26 69 -143 37 -255 -9 -30 -16 -64 -15 -75 0 -10 -5 -25 -10 -32
-6 -7 -9 -18 -6 -25 2 -7 -4 -32 -14 -56 -10 -23 -15 -50 -12 -60 6 -14 4 -15
-9 -5 -19 17 -29 6 -22 -23 6 -23 -6 -30 -38 -25 -4 0 -12 -17 -18 -39 -6 -21
-15 -42 -20 -45 -6 -3 -10 -21 -10 -39 0 -25 -6 -35 -25 -44 -34 -16 -38 -15
-31 3 3 8 0 15 -7 15 -7 0 -21 13 -32 29 -10 16 -22 28 -26 25 -4 -2 -10 0
-14 5 -7 12 -64 41 -80 41 -20 0 -37 -48 -24 -72 10 -18 8 -19 -12 -13 -12 4
-31 16 -42 26 -12 10 -29 21 -39 25 -10 3 -16 10 -13 15 9 13 55 11 55 -3 0
-6 3 -8 6 -5 9 9 -17 69 -38 88 -19 17 -24 39 -9 39 22 0 69 61 72 92 3 45
-38 178 -64 206 -43 46 -49 19 -12 -54 14 -27 25 -54 25 -61 0 -7 -16 -20 -35
-29 -20 -9 -41 -25 -48 -34 -18 -26 -108 -19 -137 10 -26 26 -37 20 -45 -30
-6 -34 -9 -38 -21 -26 -8 8 -14 19 -14 25 0 6 -4 11 -10 11 -15 0 -12 -27 6
-67 12 -24 25 -36 45 -40 25 -5 28 -9 23 -32 -11 -48 -13 -53 -33 -46 -14 4
-20 -1 -24 -22 -6 -34 1 -43 17 -21 6 9 23 18 36 20 20 2 24 8 22 27 -1 13 3
30 9 37 6 7 8 18 4 24 -3 5 -3 10 2 10 4 0 16 14 25 30 17 29 39 37 73 24 34
-13 53 -87 31 -122 -4 -7 -3 -12 2 -12 5 0 12 -8 14 -18 8 -28 -62 -56 -106
-43 -44 12 -85 3 -119 -25 -33 -27 -57 -31 -57 -9 0 8 3 15 8 15 4 0 8 14 9
30 1 17 -2 30 -7 30 -6 0 -10 -4 -10 -10 0 -5 -11 -10 -25 -10 -15 0 -48 -18
-78 -42 -41 -33 -56 -53 -65 -85 -12 -44 -32 -58 -32 -23 0 10 -6 23 -12 27
-16 10 -51 81 -54 106 -1 10 -11 25 -23 33 -39 28 -101 207 -85 248 3 8 -4 33
-16 57 -19 37 -22 55 -18 139 3 82 7 99 26 118 32 32 70 25 114 -20 33 -33 41
-37 78 -32 22 3 50 9 63 14 24 9 25 9 -38 14 -22 1 -33 32 -16 49 7 7 17 3 31
-16 28 -35 52 -34 84 3 22 27 27 29 50 18 14 -6 26 -15 26 -20 0 -5 8 -8 17
-6 11 2 17 14 18 34 1 29 -2 33 -39 45 -45 14 -94 13 -113 -3 -9 -7 -13 -7
-13 0 0 6 -26 10 -65 10 -36 -1 -68 1 -71 5 -4 4 4 15 17 26 44 36 174 17 282
-40 10 -5 22 -7 27 -4 12 8 13 55 2 55 -5 0 -13 10 -19 22 -6 14 -26 26 -59
35 -57 16 -222 24 -244 13 -8 -5 -31 -10 -50 -12 l-35 -3 3 44 c1 24 7 50 13
57 12 15 15 154 3 163 -5 3 -15 18 -21 34 -12 26 -33 37 -33 17 0 -5 -7 -7
-15 -4 -19 8 -12 56 17 124 21 51 158 192 199 205 13 4 30 17 38 27 12 18 15
18 30 4 16 -15 19 -14 36 4 10 12 25 18 33 15 7 -3 23 0 34 6 13 7 23 7 27 2
3 -6 18 -13 33 -17 26 -6 27 -5 22 24 -5 23 -3 30 9 30 8 0 17 -7 21 -15z
m-1224 -25 c0 -16 -4 -30 -8 -30 -5 0 -7 14 -4 30 2 17 6 30 8 30 2 0 4 -13 4
-30z m-23 -2 c-3 -8 -6 -5 -6 6 -1 11 2 17 5 13 3 -3 4 -12 1 -19z m19 -96
c-11 -10 -14 3 -8 33 l7 30 3 -28 c2 -16 1 -31 -2 -35z m-66 -6 c0 -3 -4 -8
-10 -11 -5 -3 -10 -1 -10 4 0 6 5 11 10 11 6 0 10 -2 10 -4z m1813 -607 c17
-8 23 -17 20 -30 -5 -16 -15 -19 -68 -19 -41 0 -65 -4 -69 -12 -5 -10 -7 -10
-12 0 -7 15 -58 16 -86 1 -11 -6 -22 -8 -25 -5 -3 3 5 10 18 17 13 6 44 21 69
34 49 26 114 32 153 14z m366 -113 c10 -12 7 -18 -18 -31 -28 -14 -32 -14 -37
0 -3 8 -14 15 -23 15 -11 0 -8 5 9 14 33 19 55 19 69 2z m31 -76 c0 -5 -5 -10
-11 -10 -5 0 -7 5 -4 10 3 6 8 10 11 10 2 0 4 -4 4 -10z m-2292 -110 l-2 -65
-3 63 c-4 60 -5 62 -31 63 -17 1 -20 3 -9 6 9 2 17 12 17 21 0 13 2 13 15 -4
10 -13 14 -40 13 -84z m2305 16 c-2 -21 -13 -51 -25 -66 -12 -17 -17 -33 -12
-41 5 -9 9 -8 15 7 7 18 8 18 8 -1 1 -11 -9 -33 -20 -50 -20 -29 -21 -28 -8
25 3 10 -3 14 -18 13 -20 -2 -21 0 -12 26 7 20 7 41 0 65 -5 21 -6 34 0 31 5
-4 9 3 9 14 0 12 3 21 6 21 10 0 32 -26 38 -46 3 -10 4 0 2 23 -2 23 -1 45 2
48 11 11 20 -29 15 -69z m-76 32 c-3 -8 -6 -5 -6 6 -1 11 2 17 5 13 3 -3 4
-12 1 -19z m-2257 -22 c0 -3 -4 -8 -10 -11 -5 -3 -10 -1 -10 4 0 6 5 11 10 11
6 0 10 -2 10 -4z m-3 -48 c-3 -8 -6 -5 -6 6 -1 11 2 17 5 13 3 -3 4 -12 1 -19z
m3170 16 c-3 -3 -12 -4 -19 -1 -8 3 -5 6 6 6 11 1 17 -2 13 -5z m-20 -40 c-3
-3 -12 -4 -19 -1 -8 3 -5 6 6 6 11 1 17 -2 13 -5z m-3510 -41 c-17 -3 -25 -9
-21 -15 5 -8 1 -9 -10 -5 -10 4 -21 7 -24 8 -18 2 36 17 58 17 23 -1 23 -1 -3
-5z m146 -20 c-7 -2 -19 -2 -25 0 -7 3 -2 5 12 5 14 0 19 -2 13 -5z m2726 -5
c148 -48 185 -67 167 -85 -19 -20 -243 -13 -231 7 3 5 -3 11 -12 14 -15 5 -22
39 -14 71 2 9 54 5 90 -7z m-2672 -14 c-3 -3 -12 -4 -19 -1 -8 3 -5 6 6 6 11
1 17 -2 13 -5z m40 0 c-3 -3 -12 -4 -19 -1 -8 3 -5 6 6 6 11 1 17 -2 13 -5z
m1763 -70 c0 -8 -5 -12 -10 -9 -6 4 -8 11 -5 16 9 14 15 11 15 -7z m1020 -35
c-14 -4 -65 -7 -115 -7 -58 0 -81 3 -65 8 14 4 66 7 115 7 56 0 80 -3 65 -8z
m-2838 -231 c-8 -8 -9 -4 -5 13 4 13 8 18 11 10 2 -7 -1 -18 -6 -23z m1723
-92 c45 -1 59 -4 57 -15 -5 -25 20 -43 52 -37 22 4 27 3 16 -4 -13 -9 -13 -10
0 -10 10 0 11 -3 4 -8 -6 -4 -13 -16 -16 -28 -4 -18 0 -21 33 -23 23 -1 39 3
39 9 0 6 -5 8 -10 5 -6 -4 -18 -4 -27 -1 -14 6 -13 9 6 27 12 11 19 24 16 30
-4 5 3 9 15 9 12 0 18 5 15 10 -3 6 3 10 14 10 15 0 22 -9 26 -34 9 -48 3 -71
-19 -69 -11 1 -25 -5 -33 -13 -17 -17 -13 -68 5 -70 6 -1 14 -2 17 -3 12 -3
-81 -91 -96 -91 -10 0 -21 -4 -24 -10 -3 -5 -24 -10 -46 -10 -28 0 -39 -4 -39
-15 0 -8 -9 -15 -19 -15 -11 0 -23 -5 -27 -12 -5 -7 -15 -2 -30 17 -16 20 -26
26 -36 19 -17 -12 -47 -11 -56 2 -4 6 -14 13 -24 17 -9 3 -19 19 -23 36 -8 37
-9 37 -37 9 l-23 -23 -3 33 c-2 17 -8 32 -14 32 -7 0 -6 5 2 15 17 21 4 38
-21 25 -15 -8 -23 -7 -34 4 -8 8 -20 16 -27 18 -7 3 -9 12 -4 23 5 14 9 16 15
7 6 -10 10 -10 20 2 8 10 9 16 1 21 -14 8 -13 37 3 67 13 24 43 27 62 5 22
-26 78 -17 73 11 -5 22 55 43 102 35 19 -4 62 -7 95 -7z m-420 -86 c3 -5 2
-10 -4 -10 -5 0 -13 5 -16 10 -3 6 -2 10 4 10 5 0 13 -4 16 -10z m1972 -186
c-3 -3 -12 -4 -19 -1 -8 3 -5 6 6 6 11 1 17 -2 13 -5z m323 -4 c0 -5 -8 -10
-17 -11 -15 0 -15 -2 2 -9 17 -7 14 -9 -13 -9 -22 -1 -31 3 -26 10 4 8 -3 9
-25 4 -19 -4 -31 -3 -31 4 0 6 -40 12 -102 14 -80 2 -68 3 55 5 99 1 157 -2
157 -8z m25 0 c3 -5 1 -10 -4 -10 -6 0 -11 5 -11 10 0 6 2 10 4 10 3 0 8 -4
11 -10z m-1221 -208 c3 -5 -1 -9 -9 -9 -8 0 -15 4 -15 9 0 4 4 8 9 8 6 0 12
-4 15 -8z m83 -43 c74 -42 113 -70 113 -84 0 -8 7 -15 15 -15 19 0 19 -20 0
-56 -8 -16 -15 -37 -15 -46 0 -10 -8 -26 -17 -36 -10 -10 -30 -34 -46 -55 -27
-36 -129 -104 -157 -104 -8 0 -56 -16 -105 -36 -50 -19 -126 -43 -170 -52
-108 -23 -353 -23 -453 -2 -83 18 -197 66 -257 109 -22 15 -52 34 -67 40 -16
7 -28 16 -28 21 0 11 -27 38 -37 37 -4 -1 -9 3 -11 9 -2 6 1 11 8 11 6 0 9 4
5 9 -10 17 13 21 29 5 15 -14 16 -14 16 1 0 13 6 16 23 11 12 -3 45 -6 72 -7
28 -1 40 -4 27 -6 -19 -4 -21 -7 -11 -19 15 -18 24 -18 43 1 12 13 20 14 36 5
11 -6 25 -8 30 -5 5 3 12 0 15 -6 4 -5 13 -8 21 -5 8 3 14 -1 14 -9 0 -8 5
-15 10 -15 6 0 10 5 10 12 0 6 7 4 18 -5 10 -10 28 -17 40 -17 12 0 22 -3 22
-7 0 -14 223 -8 263 7 24 9 41 11 45 5 15 -21 53 -16 79 9 20 20 36 26 72 27
25 0 40 3 34 6 -7 2 -13 9 -13 13 0 5 20 1 45 -10 26 -11 47 -15 50 -10 4 6 0
11 -7 11 -7 1 0 4 17 8 16 3 34 16 41 28 6 13 13 21 16 18 5 -5 43 109 53 158
3 16 15 32 28 37 l22 9 -22 0 c-13 1 -23 6 -23 12 0 5 4 8 8 5 4 -2 14 -1 22
4 15 9 29 5 77 -21z m-2207 -209 c0 -5 -2 -10 -4 -10 -3 0 -8 5 -11 10 -3 6
-1 10 4 10 6 0 11 -4 11 -10z m-265 -100 c3 -5 1 -10 -4 -10 -6 0 -11 5 -11
10 0 6 2 10 4 10 3 0 8 -4 11 -10z m2915 0 c0 -5 -4 -10 -9 -10 -6 0 -13 5
-16 10 -3 6 1 10 9 10 9 0 16 -4 16 -10z m-2830 -29 c0 -12 -59 -23 -74 -13
-6 4 6 10 29 13 22 3 41 7 43 8 1 0 2 -3 2 -8z m2790 -1 c0 -5 -7 -7 -15 -4
-8 4 -15 8 -15 10 0 2 7 4 15 4 8 0 15 -4 15 -10z m-2440 -30 c0 -5 -7 -10
-16 -10 -8 0 -12 5 -9 10 3 6 10 10 16 10 5 0 9 -4 9 -10z m2980 -20 c0 -5 -4
-10 -10 -10 -5 0 -10 5 -10 10 0 6 5 10 10 10 6 0 10 -4 10 -10z m-545 -30 c3
-5 1 -10 -4 -10 -6 0 -11 5 -11 10 0 6 2 10 4 10 3 0 8 -4 11 -10z m-2325 -40
c0 -5 -5 -10 -11 -10 -5 0 -7 5 -4 10 3 6 8 10 11 10 2 0 4 -4 4 -10z m1880 0
c0 -5 -5 -10 -11 -10 -5 0 -7 5 -4 10 3 6 8 10 11 10 2 0 4 -4 4 -10z m-2590
-44 c0 -3 -4 -8 -10 -11 -5 -3 -10 -1 -10 4 0 6 5 11 10 11 6 0 10 -2 10 -4z
m50 -16 c0 -5 -4 -10 -10 -10 -5 0 -10 5 -10 10 0 6 5 10 10 10 6 0 10 -4 10
-10z m555 -20 c3 -5 1 -10 -4 -10 -6 0 -11 5 -11 10 0 6 2 10 4 10 3 0 8 -4
11 -10z m347 -19 c-1 -7 3 -19 9 -27 7 -8 10 -17 7 -19 -8 -9 -38 6 -32 16 3
5 -6 9 -19 9 -29 0 -44 27 -19 33 29 8 57 2 54 -12z m204 -8 c-10 -10 -19 5
-10 18 6 11 8 11 12 0 2 -7 1 -15 -2 -18z m-806 7 c24 -15 7 -18 -20 -3 -14 7
-18 13 -10 13 8 0 22 -4 30 -10z m871 -9 c-7 -5 -17 -15 -22 -22 -6 -10 -9 -8
-9 9 0 16 6 22 23 22 16 0 18 -3 8 -9z m2242 -8 c-7 -2 -19 -2 -25 0 -7 3 -2
5 12 5 14 0 19 -2 13 -5z m-2212 -66 c25 -23 24 -26 -3 -19 -31 7 -35 17 -29
55 5 29 6 30 9 7 2 -14 12 -33 23 -43z m1893 48 c6 -16 2 -18 -31 -9 -13 4
-23 10 -23 15 0 15 48 10 54 -6z m-2997 -17 c-3 -8 -6 -5 -6 6 -1 11 2 17 5
13 3 -3 4 -12 1 -19z m283 -4 c35 -6 38 -8 27 -25 -14 -23 -27 -25 -27 -4 0 9
-11 20 -25 25 -14 5 -25 15 -24 22 0 10 2 10 6 0 2 -6 22 -15 43 -18z m135 4
c-2 -23 -29 -47 -41 -36 -3 4 -2 13 2 20 5 7 9 16 10 21 1 4 2 9 3 12 0 3 7 5
14 5 8 0 13 -10 12 -22z m260 13 c3 -5 1 -12 -5 -16 -5 -3 -10 1 -10 9 0 18 6
21 15 7z m-815 -22 c0 -5 -4 -9 -10 -9 -5 0 -10 7 -10 16 0 8 5 12 10 9 6 -3
10 -10 10 -16z m697 5 c-3 -3 -12 -4 -19 -1 -8 3 -5 6 6 6 11 1 17 -2 13 -5z
m-507 -18 c0 -24 -11 -46 -24 -46 -9 0 -13 37 -7 58 3 9 31 -1 31 -12z m420 4
c0 -5 -4 -10 -10 -10 -5 0 -10 5 -10 10 0 6 5 10 10 10 6 0 10 -4 10 -10z
m460 -10 c0 -11 -7 -20 -15 -20 -8 0 -15 9 -15 20 0 11 7 20 15 20 8 0 15 -9
15 -20z m1320 10 c-8 -5 -26 -9 -40 -9 -23 1 -23 2 5 9 43 11 52 11 35 0z m47
-6 c3 -8 12 -13 19 -10 8 3 14 1 14 -5 0 -6 7 -9 15 -5 21 8 45 -3 39 -19 -3
-7 1 -24 9 -37 10 -15 12 -30 7 -43 -5 -11 -9 -15 -10 -10 -8 53 -28 95 -45
95 -8 0 -15 -7 -15 -16 0 -9 -6 -14 -12 -11 -7 2 -12 10 -10 17 1 7 -6 20 -18
30 -22 19 -26 30 -10 30 6 0 13 -7 17 -16z m181 -2 c6 -18 -15 -14 -22 4 -4
10 -1 14 6 12 6 -2 14 -10 16 -16z m552 11 c-1 -28 -20 -35 -74 -29 -31 4 -56
12 -56 17 0 5 17 7 39 3 24 -4 41 -2 45 5 8 12 46 15 46 4z m-2890 -18 c0 -8
-7 -15 -15 -15 -16 0 -20 12 -8 23 11 12 23 8 23 -8z m80 5 c0 -5 -4 -10 -9
-10 -6 0 -13 5 -16 10 -3 6 1 10 9 10 9 0 16 -4 16 -10z m588 -14 c0 -16 -5
-23 -14 -19 -10 4 -11 9 -1 24 15 24 15 24 15 -5z m2407 -4 c-3 -3 -11 0 -18
7 -9 10 -8 11 6 5 10 -3 15 -9 12 -12z m315 8 c13 -8 13 -10 -2 -10 -9 0 -20
5 -23 10 -8 13 5 13 25 0z m-3350 -4 c0 -3 -4 -8 -10 -11 -5 -3 -10 -1 -10 4
0 6 5 11 10 11 6 0 10 -2 10 -4z m2252 -3 c-22 -9 -2 -23 24 -17 26 7 35 -13
9 -22 -8 -4 -15 -13 -15 -21 0 -11 7 -13 24 -9 12 3 26 3 29 -1 7 -7 -22 -32
-38 -33 -5 0 -3 5 5 10 12 8 9 10 -12 10 -20 0 -28 5 -28 18 0 10 -5 23 -11
29 -14 14 -5 43 13 42 10 0 10 -2 0 -6z m-2217 -13 c3 -5 -1 -10 -10 -10 -9 0
-13 5 -10 10 3 6 8 10 10 10 2 0 7 -4 10 -10z m-85 -10 c0 -5 -4 -10 -10 -10
-5 0 -10 5 -10 10 0 6 5 10 10 10 6 0 10 -4 10 -10z m3383 3 c-7 -2 -19 -2
-25 0 -7 3 -2 5 12 5 14 0 19 -2 13 -5z m-988 -13 c3 -5 -3 -10 -14 -10 -12 0
-21 5 -21 10 0 6 6 10 14 10 8 0 18 -4 21 -10z m-1645 -20 c0 -5 -4 -10 -10
-10 -5 0 -10 5 -10 10 0 6 5 10 10 10 6 0 10 -4 10 -10z m2252 -15 c-2 -14 -8
-25 -12 -25 -4 0 -5 11 -2 25 2 14 8 25 12 25 4 0 5 -11 2 -25z m416 1 c3 -15
0 -16 -16 -7 -13 7 -22 7 -30 -1 -9 -9 -12 -8 -12 4 0 30 53 33 58 4z m-2732
5 c-3 -5 4 -11 17 -14 18 -5 22 -13 22 -47 0 -37 -2 -40 -32 -46 -46 -9 -64 1
-30 16 26 13 39 50 17 50 -5 0 -10 -4 -10 -10 0 -5 -11 -10 -24 -10 -14 0 -33
-10 -44 -24 -26 -33 -47 -20 -32 19 9 23 13 26 20 15 7 -12 12 -12 28 3 10 9
27 17 38 18 10 0 14 3 7 6 -10 3 -10 7 0 18 13 16 31 20 23 6z m2159 -1 c-3
-5 -13 -10 -21 -10 -8 0 -12 5 -9 10 3 6 13 10 21 10 8 0 12 -4 9 -10z m-3216
-22 c0 -13 -4 -32 -9 -43 -8 -18 -9 -17 -9 7 -1 14 -4 33 -7 42 -4 11 -1 16
10 16 10 0 16 -8 15 -22z m83 0 c-8 -8 -17 -8 -34 0 -22 10 -21 11 12 11 26 1
31 -2 22 -11z m2158 2 c0 -5 -4 -10 -10 -10 -5 0 -10 5 -10 10 0 6 5 10 10 10
6 0 10 -4 10 -10z m1040 0 c0 -5 -5 -10 -11 -10 -5 0 -7 5 -4 10 3 6 8 10 11
10 2 0 4 -4 4 -10z m-2133 -6 c-3 -3 -12 -4 -19 -1 -8 3 -5 6 6 6 11 1 17 -2
13 -5z m2273 -4 c0 -5 -2 -10 -4 -10 -3 0 -8 5 -11 10 -3 6 -1 10 4 10 6 0 11
-4 11 -10z m-2240 -25 c0 -16 -17 -19 -44 -9 -22 9 -10 24 20 24 15 0 24 -6
24 -15z m1175 -5 c13 0 27 -5 31 -12 5 -8 0 -9 -17 -5 -13 4 -30 7 -36 7 -7 0
-13 8 -12 18 0 10 3 12 6 5 2 -7 15 -13 28 -13z m-2278 4 c-3 -3 -12 -4 -19
-1 -8 3 -5 6 6 6 11 1 17 -2 13 -5z m2808 -3 c15 -6 9 -10 -28 -15 -51 -8 -63
-5 -52 13 7 13 50 13 80 2z m905 5 c0 -3 -4 -8 -10 -11 -5 -3 -10 -1 -10 4 0
6 5 11 10 11 6 0 10 -2 10 -4z m-438 -18 c-9 -9 -15 -9 -24 0 -9 9 -7 12 12
12 19 0 21 -3 12 -12z m-2092 -12 c0 -11 -19 -15 -25 -6 -3 5 1 10 9 10 9 0
16 -2 16 -4z m1633 -8 c9 2 17 -2 17 -7 0 -6 -15 -11 -32 -12 l-33 -1 28 -10
c33 -12 37 -33 5 -24 -13 4 -35 9 -50 12 -18 4 -28 13 -28 24 0 13 6 17 19 13
10 -3 22 0 26 6 3 6 12 8 18 4 7 -4 20 -6 30 -5z m-1743 -8 c0 -5 -7 -10 -15
-10 -8 0 -15 5 -15 10 0 6 7 10 15 10 8 0 15 -4 15 -10z m1181 -13 c-13 -13
-26 -3 -16 12 3 6 11 8 17 5 6 -4 6 -10 -1 -17z m-64 7 c-3 -3 -12 -4 -19 -1
-8 3 -5 6 6 6 11 1 17 -2 13 -5z m973 -9 c-7 -8 -19 -15 -26 -15 -8 0 -14 7
-14 15 0 10 10 15 26 15 22 0 25 -2 14 -15z m-1450 -5 c13 -8 13 -10 -2 -10
-9 0 -20 5 -23 10 -8 13 5 13 25 0z m1225 0 c3 -5 1 -10 -4 -10 -6 0 -11 5
-11 10 0 6 2 10 4 10 3 0 8 -4 11 -10z m-1860 -10 c3 -5 -3 -10 -14 -10 -12 0
-21 5 -21 10 0 6 6 10 14 10 8 0 18 -4 21 -10z m2148 -35 c-5 -15 -42 -27 -55
-18 -5 3 0 11 11 19 12 9 18 21 14 30 -5 14 -3 14 15 -1 11 -10 18 -24 15 -30z
m-3201 3 c-6 -6 -15 -8 -19 -4 -4 4 -1 11 7 16 19 12 27 3 12 -12z m765 -14
c-3 -3 -12 -4 -19 -1 -8 3 -5 6 6 6 11 1 17 -2 13 -5z m60 0 c-3 -3 -12 -4
-19 -1 -8 3 -5 6 6 6 11 1 17 -2 13 -5z m2158 -4 c3 -5 -1 -10 -9 -10 -9 0
-16 5 -16 10 0 6 4 10 9 10 6 0 13 -4 16 -10z m-562 -17 c-7 -2 -19 -2 -25 0
-7 3 -2 5 12 5 14 0 19 -2 13 -5z m-1557 -38 c-4 -14 -11 -25 -17 -25 -8 0 -8
4 0 14 9 11 9 16 0 21 -8 6 -8 10 2 16 18 11 22 4 15 -26z m-98 -31 c-11 -11
-23 -14 -39 -8 -24 8 -23 8 6 15 47 11 50 10 33 -7z m2707 6 c3 -5 1 -10 -4
-10 -6 0 -11 5 -11 10 0 6 2 10 4 10 3 0 8 -4 11 -10z m-2188 -6 c-3 -3 -12
-4 -19 -1 -8 3 -5 6 6 6 11 1 17 -2 13 -5z m-657 -19 c0 -8 -7 -15 -16 -15
-14 0 -14 3 -4 15 7 8 14 15 16 15 2 0 4 -7 4 -15z m280 5 c0 -5 -4 -10 -10
-10 -5 0 -10 5 -10 10 0 6 5 10 10 10 6 0 10 -4 10 -10z m2280 -31 c0 -14 -16
-11 -29 5 -10 12 -8 13 8 9 12 -3 21 -9 21 -14z"/>
<path d="M1921 3124 c0 -11 3 -14 6 -6 3 7 2 16 -1 19 -3 4 -6 -2 -5 -13z"/>
<path d="M2055 3110 c-3 -5 1 -10 10 -10 9 0 13 5 10 10 -3 6 -8 10 -10 10 -2
0 -7 -4 -10 -10z"/>
<path d="M2080 2239 c0 -5 5 -7 10 -4 6 3 10 8 10 11 0 2 -4 4 -10 4 -5 0 -10
-5 -10 -11z"/>
<path d="M2076 2184 c-4 -9 -4 -19 -1 -22 2 -3 7 3 11 12 4 9 4 19 1 22 -2 3
-7 -3 -11 -12z"/>
<path d="M1852 2063 c-7 -12 -12 -34 -11 -50 0 -26 1 -25 15 11 16 45 13 72
-4 39z"/>
<path d="M2060 1489 c-36 -4 -73 -5 -83 -2 -26 7 -67 -5 -67 -21 0 -7 11 -19
25 -26 13 -7 22 -17 19 -21 -2 -4 0 -10 5 -13 5 -3 7 -16 4 -29 -4 -18 -3 -19
6 -7 10 13 15 8 12 -12 -3 -19 40 -6 50 15 17 38 36 68 43 68 30 -3 39 0 29
10 -9 9 -6 16 10 30 12 10 20 18 17 17 -3 0 -34 -4 -70 -9z"/>
<path d="M2520 739 c0 -5 5 -7 10 -4 6 3 10 8 10 11 0 2 -4 4 -10 4 -5 0 -10
-5 -10 -11z"/>
<path d="M2497 696 c4 -17 14 -26 35 -30 47 -9 106 -7 113 4 3 6 -3 10 -15 10
-24 0 -61 17 -72 34 -6 8 -11 6 -19 -4 -8 -11 -12 -12 -16 -2 -9 23 -30 13
-26 -12z"/>
<path d="M2700 3481 c0 -6 5 -13 10 -16 6 -3 10 1 10 9 0 9 -4 16 -10 16 -5 0
-10 -4 -10 -9z"/>
<path d="M717 3273 c-4 -3 -7 -20 -6 -37 l1 -31 8 35 c9 36 8 45 -3 33z"/>
<path d="M2730 3090 c0 -5 5 -10 10 -10 6 0 10 5 10 10 0 6 -4 10 -10 10 -5 0
-10 -4 -10 -10z"/>
<path d="M551 2814 c0 -11 3 -14 6 -6 3 7 2 16 -1 19 -3 4 -6 -2 -5 -13z"/>
<path d="M497 2634 c-4 -4 -7 -14 -7 -23 0 -11 3 -12 11 -4 6 6 10 16 7 23 -2
6 -7 8 -11 4z"/>
<path d="M3671 2264 c0 -11 3 -14 6 -6 3 7 2 16 -1 19 -3 4 -6 -2 -5 -13z"/>
<path d="M385 2240 c3 -5 11 -10 16 -10 6 0 7 5 4 10 -3 6 -11 10 -16 10 -6 0
-7 -4 -4 -10z"/>
<path d="M0 2224 c0 -8 5 -12 10 -9 6 3 10 10 10 16 0 5 -4 9 -10 9 -5 0 -10
-7 -10 -16z"/>
<path d="M3681 2224 c0 -11 3 -14 6 -6 3 7 2 16 -1 19 -3 4 -6 -2 -5 -13z"/>
<path d="M0 2135 c0 -26 8 -28 50 -15 17 6 19 8 7 9 -10 1 -20 8 -23 16 -10
25 -34 17 -34 -10z"/>
<path d="M80 2106 c0 -10 9 -16 21 -16 24 0 21 23 -4 28 -10 2 -17 -3 -17 -12z"/>
<path d="M872 1655 c0 -16 2 -22 5 -12 2 9 2 23 0 30 -3 6 -5 -1 -5 -18z"/>
<path d="M1270 1499 c0 -5 5 -7 10 -4 6 3 10 8 10 11 0 2 -4 4 -10 4 -5 0 -10
-5 -10 -11z"/>
<path d="M881 1384 c0 -11 3 -14 6 -6 3 7 2 16 -1 19 -3 4 -6 -2 -5 -13z"/>
<path d="M863 1114 c-8 -21 13 -42 28 -27 13 13 5 43 -11 43 -6 0 -13 -7 -17
-16z"/>
</g>
</svg>
